<?xml version="1.0" encoding="utf-8"?>
<!-- Generator: Adobe Illustrator 16.0.4, SVG Export Plug-In . SVG Version: 6.00 Build 0)  -->
<!DOCTYPE svg PUBLIC "-//W3C//DTD SVG 1.1//EN" "http://www.w3.org/Graphics/SVG/1.1/DTD/svg11.dtd">
<svg version="1.1" xmlns="http://www.w3.org/2000/svg" xmlns:xlink="http://www.w3.org/1999/xlink" x="0px" y="0px"
	 width="149.977px" height="73.191px" viewBox="-6.384 0 149.977 73.191" enable-background="new -6.384 0 149.977 73.191"
	 xml:space="preserve">
<g id="Layer_3" display="none">
	<path display="inline" fill="#A8A542" d="M117.753,0c-13.329,0-19.026,11.059-19.027,18.883c0,8.692,5.505,18.979,18.737,18.979
		c11.64,0,19.27-8.934,19.27-19.752C136.732,6.858,128.619,0,117.753,0z"/>
</g>
<g id="Layer_1">
	<path fill="#A8A542" d="M7.926,42.646c0.492-1.353,0.656-1.599,0.902-1.599s0.41,0.205,0.902,1.476
		c0.615,1.559,7.052,18.491,9.553,24.724c1.476,3.649,2.665,4.305,3.526,4.551c0.615,0.205,1.23,0.246,1.64,0.246
		c0.246,0,0.41,0.041,0.41,0.246c0,0.246-0.369,0.328-0.82,0.328c-0.615,0-3.608,0-6.437-0.082c-0.779-0.041-1.23-0.041-1.23-0.287
		c0-0.164,0.123-0.246,0.287-0.287c0.246-0.082,0.492-0.451,0.246-1.106l-3.813-10.087c-0.082-0.163-0.164-0.245-0.369-0.245H3.907
		c-0.205,0-0.328,0.123-0.41,0.327l-2.46,7.258c-0.369,1.024-0.574,2.009-0.574,2.747c0,0.819,0.861,1.188,1.558,1.188h0.41
		c0.287,0,0.41,0.082,0.41,0.246c0,0.246-0.246,0.328-0.615,0.328c-0.984,0-2.747-0.123-3.198-0.123
		c-0.451,0-2.706,0.123-4.633,0.123c-0.533,0-0.779-0.082-0.779-0.328c0-0.164,0.164-0.246,0.369-0.246
		c0.287,0,0.861-0.041,1.189-0.082c1.886-0.246,2.706-1.804,3.444-3.854L7.926,42.646z M12.19,59.046
		c0.205,0,0.205-0.123,0.164-0.287l-3.895-11.07c-0.205-0.614-0.41-0.614-0.615,0l-3.608,11.07c-0.082,0.205,0,0.287,0.123,0.287
		H12.19z M27.441,53.511c0-6.396,0-7.544-0.082-8.855c-0.082-1.395-0.41-2.051-1.763-2.337c-0.328-0.082-1.025-0.123-1.394-0.123
		c-0.164,0-0.328-0.082-0.328-0.246c0-0.246,0.205-0.328,0.656-0.328c0.943,0,2.05,0,2.952,0.041l1.681,0.041
		c0.82,0,9.143,0.041,10.086,0c0.779-0.041,1.435-0.041,1.804-0.164c0.246-0.082,0.41-0.246,0.574-0.246s0.246,0.164,0.246,0.369
		c0,0.287-0.205,0.778-0.328,1.927c-0.041,0.41-0.123,2.214-0.205,2.706c-0.041,0.205-0.123,0.451-0.328,0.451
		s-0.287-0.205-0.287-0.492c0-0.328-0.123-1.025-0.369-1.558c-0.246-0.533-1.189-1.271-2.788-1.312l-6.314-0.123
		c-0.246,0-0.369,0.123-0.369,0.451v11.316c0,0.246,0.041,0.369,0.287,0.369l5.248-0.041c0.697,0,1.271,0,1.845-0.041
		c0.984-0.082,1.517-0.205,1.886-0.738c0.164-0.205,0.287-0.41,0.451-0.41c0.164,0,0.205,0.123,0.205,0.328
		c0,0.246-0.205,0.942-0.328,2.296c-0.082,0.82-0.164,2.46-0.164,2.747c0,0.369,0,0.779-0.287,0.779
		c-0.205,0-0.287-0.164-0.287-0.369c-0.041-0.41-0.082-0.984-0.246-1.477c-0.205-0.573-0.861-1.312-2.132-1.476
		c-1.025-0.123-5.494-0.123-6.191-0.123c-0.205,0-0.287,0.082-0.287,0.369v3.484c0,3.937,0,7.176,0.205,8.897
		c0.123,1.189,0.369,2.091,1.599,2.255c0.574,0.082,1.476,0.164,1.845,0.164c0.246,0,0.328,0.123,0.328,0.246
		c0,0.205-0.205,0.328-0.656,0.328c-2.255,0-4.838-0.123-5.043-0.123s-2.788,0.123-4.018,0.123c-0.451,0-0.656-0.082-0.656-0.328
		c0-0.123,0.082-0.246,0.328-0.246c0.369,0,0.861-0.082,1.23-0.164c0.82-0.164,1.025-1.065,1.189-2.255
		c0.205-1.722,0.205-4.961,0.205-8.897V53.511z M48.433,53.511c0-6.396,0-7.544-0.082-8.855c-0.082-1.395-0.41-2.051-1.763-2.337
		c-0.328-0.082-1.025-0.123-1.394-0.123c-0.164,0-0.328-0.082-0.328-0.246c0-0.246,0.205-0.328,0.656-0.328
		c1.845,0,4.428,0.123,4.633,0.123c0.451,0,3.567-0.123,4.838-0.123c2.583,0,5.33,0.246,7.503,1.804
		c1.025,0.738,2.829,2.747,2.829,5.576c0,3.034-1.271,6.068-4.961,9.471c3.362,4.306,6.15,7.954,8.528,10.496
		c2.214,2.337,3.977,2.788,5.002,2.952c0.779,0.123,1.353,0.123,1.599,0.123c0.205,0,0.369,0.123,0.369,0.246
		c0,0.246-0.246,0.328-0.984,0.328h-2.911c-2.296,0-3.321-0.205-4.387-0.779c-1.763-0.942-3.198-2.952-5.535-6.026
		c-1.722-2.256-3.649-5.003-4.469-6.068c-0.164-0.164-0.287-0.246-0.533-0.246L52,59.415c-0.205,0-0.287,0.123-0.287,0.328v0.983
		c0,3.937,0,7.176,0.205,8.897c0.123,1.189,0.369,2.091,1.599,2.255c0.574,0.082,1.476,0.164,1.845,0.164
		c0.246,0,0.328,0.123,0.328,0.246c0,0.205-0.205,0.328-0.656,0.328c-2.255,0-4.838-0.123-5.043-0.123
		c-0.041,0-2.624,0.123-3.854,0.123c-0.451,0-0.656-0.082-0.656-0.328c0-0.123,0.082-0.246,0.328-0.246
		c0.369,0,0.861-0.082,1.23-0.164c0.82-0.164,1.025-1.065,1.189-2.255c0.205-1.722,0.205-4.961,0.205-8.897V53.511z M51.713,57.078
		c0,0.205,0.082,0.369,0.287,0.492c0.615,0.369,2.501,0.655,4.305,0.655c0.984,0,2.132-0.123,3.075-0.778
		c1.435-0.984,2.501-3.198,2.501-6.314c0-5.125-2.706-8.2-7.093-8.2c-1.23,0-2.337,0.123-2.747,0.246
		c-0.205,0.082-0.328,0.246-0.328,0.492V57.078z M82.791,60.727c0,3.937,0,7.176,0.205,8.897c0.123,1.189,0.369,2.091,1.599,2.255
		c0.574,0.082,1.476,0.164,1.845,0.164c0.246,0,0.328,0.123,0.328,0.246c0,0.205-0.205,0.328-0.656,0.328
		c-2.255,0-4.838-0.123-5.043-0.123s-2.788,0.123-4.018,0.123c-0.451,0-0.656-0.082-0.656-0.328c0-0.123,0.082-0.246,0.328-0.246
		c0.369,0,0.861-0.082,1.23-0.164c0.82-0.164,1.025-1.065,1.189-2.255c0.205-1.722,0.205-4.961,0.205-8.897v-7.216
		c0-6.396,0-7.544-0.082-8.855c-0.082-1.395-0.492-2.092-1.394-2.297c-0.451-0.122-0.984-0.163-1.271-0.163
		c-0.164,0-0.328-0.082-0.328-0.246c0-0.246,0.205-0.328,0.656-0.328c1.353,0,3.936,0.123,4.141,0.123s2.788-0.123,4.018-0.123
		c0.451,0,0.656,0.082,0.656,0.328c0,0.164-0.164,0.246-0.328,0.246c-0.287,0-0.533,0.041-1.025,0.123
		c-1.107,0.204-1.435,0.901-1.517,2.337c-0.082,1.312-0.082,2.46-0.082,8.855V60.727z M91.319,68.763
		c-3.977-3.566-4.961-8.24-4.961-12.136c0-2.747,0.943-7.544,4.592-11.193c2.46-2.46,6.191-4.387,12.505-4.387
		c1.64,0,3.936,0.123,5.945,0.492c1.558,0.287,2.87,0.533,4.182,0.615c0.451,0.041,0.533,0.204,0.533,0.45
		c0,0.328-0.123,0.82-0.205,2.297c-0.082,1.353-0.082,3.607-0.123,4.223s-0.123,0.861-0.369,0.861c-0.287,0-0.328-0.287-0.328-0.861
		c0-1.599-0.656-3.28-1.722-4.183c-1.435-1.229-4.592-2.337-8.2-2.337c-5.453,0-7.995,1.6-9.43,2.993
		c-2.993,2.87-3.69,6.52-3.69,10.701c0,7.831,6.027,15.006,14.801,15.006c3.075,0,5.494-0.368,7.134-2.05
		c0.861-0.901,1.394-2.706,1.517-3.443c0.082-0.451,0.164-0.615,0.41-0.615c0.205,0,0.287,0.287,0.287,0.615
		c0,0.286-0.492,3.854-0.902,5.248c-0.246,0.778-0.328,0.86-1.066,1.188c-1.64,0.656-4.756,0.943-7.38,0.943
		C98.699,73.192,94.558,71.674,91.319,68.763z M126.66,42.646c0.492-1.353,0.656-1.599,0.902-1.599s0.41,0.205,0.902,1.476
		c0.615,1.559,7.052,18.491,9.553,24.724c1.477,3.649,2.665,4.305,3.526,4.551c0.615,0.205,1.229,0.246,1.64,0.246
		c0.246,0,0.41,0.041,0.41,0.246c0,0.246-0.369,0.328-0.82,0.328c-0.614,0-3.607,0-6.437-0.082c-0.779-0.041-1.23-0.041-1.23-0.287
		c0-0.164,0.123-0.246,0.287-0.287c0.246-0.082,0.492-0.451,0.246-1.106l-3.813-10.087c-0.082-0.163-0.164-0.245-0.369-0.245h-8.815
		c-0.205,0-0.328,0.123-0.41,0.327l-2.46,7.258c-0.369,1.024-0.574,2.009-0.574,2.747c0,0.819,0.861,1.188,1.558,1.188h0.41
		c0.287,0,0.41,0.082,0.41,0.246c0,0.246-0.246,0.328-0.615,0.328c-0.984,0-2.747-0.123-3.198-0.123
		c-0.451,0-2.706,0.123-4.633,0.123c-0.533,0-0.779-0.082-0.779-0.328c0-0.164,0.164-0.246,0.369-0.246
		c0.287,0,0.861-0.041,1.189-0.082c1.886-0.246,2.706-1.804,3.444-3.854L126.66,42.646z M130.925,59.046
		c0.205,0,0.205-0.123,0.164-0.287l-3.895-11.07c-0.205-0.614-0.41-0.614-0.615,0l-3.608,11.07c-0.082,0.205,0,0.287,0.123,0.287
		H130.925z"/>
</g>
<g id="Layer_2">
	<g>
		<path fill="#A8A542" d="M12.265,0.676c-2.221,0-5.023,0.146-6.085,0.146c-0.386,0-3.284-0.146-5.457-0.146
			c-0.531,0-0.773,0.097-0.773,0.387c0,0.192,0.193,0.29,0.388,0.29c0.434,0,1.255,0.048,1.642,0.145
			C3.572,1.835,3.959,2.609,4.055,4.25c0.097,1.545,0.097,2.897,0.097,10.431H4.149v8.496c0,4.636,0,8.451-0.241,10.48
			c-0.191,1.399-0.433,2.463-1.398,2.655c-0.436,0.095-1.015,0.192-1.449,0.192c-0.289,0-0.386,0.144-0.386,0.289
			c0,0.29,0.24,0.388,0.771,0.388c1.448,0,4.491-0.146,4.636-0.146c0.241,0,3.284,0.146,5.94,0.146c0.531,0,0.773-0.146,0.773-0.388
			c0-0.144-0.099-0.289-0.389-0.289c-0.434,0-1.497-0.096-2.173-0.192c-1.448-0.192-1.738-1.256-1.883-2.655
			C8.11,31.628,8.11,27.815,8.11,23.177V3.328c0-0.481,0.096-0.82,0.386-0.917c0.436-0.193,1.258-0.29,2.077-0.29
			c1.111,0,4.057-0.193,6.616,2.415c2.559,2.608,2.705,5.844,2.705,7.438c0,4.442-3.669,7.872-8.355,7.872
			c-1.014,0-1.304,0.049-1.304,0.437c0,0.239,0.29,0.338,0.531,0.338c0.243,0.048,0.772,0.048,1.015,0.048
			c6.859,0,11.88-4.636,11.88-11.494c0-2.559-1.353-4.732-2.415-5.747C20.475,2.704,18.302,0.676,12.265,0.676z"/>
		<path fill="#A8A542" d="M48.297,0C34.968,0,29.268,11.06,29.268,18.883c0,8.693,5.505,18.979,18.738,18.979
			c11.639,0,19.269-8.935,19.269-19.752C67.275,6.859,59.162,0,48.297,0z M49.31,36.028c-8.693,0-15.454-7.244-15.455-18.494
			c0-10.578,6.038-15.89,14.102-15.89c7.632,0,14.683,6.229,14.683,17.819C62.639,33.517,53.657,36.028,49.31,36.028z"/>
		<path fill="#A8A542" d="M95.581,30.476c-0.29,0-0.387,0.24-0.435,0.628c-0.146,0.917-0.627,2.124-1.255,2.896
			c-1.159,1.399-3.284,1.449-5.844,1.449c-3.769,0-5.023-0.339-5.797-1.111c-0.868-0.871-1.062-3.96-1.062-11.06l-0.003-8.594
			c0-7.535,0-8.887,0.097-10.432c0.099-1.69,0.484-2.511,1.884-2.753c0.579-0.098,1.257-0.146,1.595-0.146
			c0.193,0,0.387-0.098,0.387-0.29c0-0.29-0.242-0.387-0.773-0.387c-1.447,0-4.974,0.146-5.216,0.146
			c-0.241,0-3.284-0.146-5.457-0.146c-0.529,0-0.771,0.097-0.771,0.387c0,0.192,0.193,0.29,0.387,0.29
			c0.434,0,1.255,0.048,1.642,0.146c1.596,0.338,1.98,1.11,2.077,2.753c0.098,1.545,0.098,2.897,0.098,10.432v8.5
			c0,4.635,0,8.45-0.241,10.479c-0.193,1.399-0.436,2.463-1.401,2.655c-0.434,0.095-1.013,0.193-1.449,0.193
			c-0.288,0-0.386,0.143-0.386,0.288c0,0.29,0.242,0.388,0.773,0.388c0.724,0,1.786-0.049,2.752-0.098
			c0.965,0,1.787-0.048,1.979-0.048c1.402,0,2.899,0.048,4.928,0.146c2.028,0.049,4.538,0.146,8.017,0.146
			c2.559,0,2.704-0.194,3.042-1.305c0.387-1.399,0.725-4.297,0.725-4.828C95.871,30.668,95.822,30.476,95.581,30.476z"/>
		<path fill="#A8A542" d="M117.703,0c-13.329,0-19.026,11.06-19.027,18.882c0,8.693,5.505,18.979,18.736,18.979
			c11.641,0,19.271-8.935,19.271-19.752C136.682,6.858,128.569,0,117.703,0z M113.367,26.307c0,0.791,1.042-0.042,1.021,1.729
			c-0.018,1.377-0.083,3.206-0.083,4.583c0,0.354-0.446,0.044-0.646,0.25c-0.137,0.143-0.167,0.291-0.146,1
			c0.005,0.179,0.833-0.229,0.854,0.229c0.021,0.416,0.291,0.984-0.348,1.169c-6.312-2.131-10.755-8.615-10.755-17.733
			c0-9.886,5.275-15.169,12.547-15.819c-0.152,1.625-0.661,2.468-1.527,3.467c-0.23,0.268-0.295,1.786,0.104,2.221
			c2.344,2.551,1,5.018,3.219,5.956c-0.021,0.666-0.741,1.395-0.844,1.562c-0.568,0.922-1.478,2.512-1.521,2.574
			c-0.484,0.701-0.833,0.833-0.875,1.958c-0.028,0.813-0.729,0.834-1.125,2.396C113.221,23.618,113.367,25.75,113.367,26.307z
			 M118.404,31.936c0,0.312-0.396,0.139-0.375,0.453c0.047,0.642-0.641,0.86-0.125,1.219c0.166,0.116,0.115,0.485,0.109,0.595
			c-1.393-0.02-0.873,0.82-0.839,1.744c-0.55-0.056-1.092-0.139-1.622-0.254c0.023-0.001,0.038,0.007,0.062,0.005
			c0.186-0.302,0.025-0.538,0.046-0.828c0.043-0.6-0.002-1.442,0.062-2.417c1.472-1.135,0.623-3.867,1.201-4.972
			c0.568-1.092,1.943-0.384,1.98,0.191c-0.145,0.547-0.209,1.07-0.188,1.967c0.005,0.24-0.403,0.346-0.359,0.952
			C118.422,31.452,118.404,31.627,118.404,31.936z M118.719,36.028c-0.083,0-0.163-0.012-0.246-0.013
			c0.166-0.011,0.364-0.04,0.638-0.113c0.029-1.199-0.018-2.246,0.762-2.544c0.229-1.645,1.142-3.405,1.703-4.03
			c0.142-0.573,0.104-1.996,0.333-2.479c0.104-0.214,0.688-0.576,0.792-0.188c0.146,0.542-0.279,1.195,0,1.459
			c0.698-0.057,0.974,0.046,1.812-0.047c-0.467-3.313,0.016-4.11,0.641-5.688c0.116-0.123,0.716,0.052,0.859-0.03
			c-0.12-0.577-0.672-0.391-0.656-1.062c0.009-0.396,0.183-0.231,0.25-0.5c0.047-0.188-0.344-0.641-0.422-0.858
			c-0.889-4.531-2.264-3.968-2.359-5.733c-0.018-0.327-0.136-1.081-0.047-1.484c0.081-0.366,0.172-0.891,0.172-0.891
			s0.759-0.366,1.156-0.642c0.766-0.533-0.324-1.122-0.359-1.438c-0.119-0.27,0.043-0.707-0.188-0.953
			c-1.078-1.142-1.909-2.379-4.767-2.642c-0.015-0.351,0.053-0.945,0.017-1.202c-0.188-1.359-1.656-1.095-1.609-1.5
			c0.034-0.281-0.4-1.018,0.08-1.8c0.029,0,0.057-0.003,0.085-0.003c7.63,0,14.683,6.229,14.683,17.819
			C132.048,33.517,123.065,36.028,118.719,36.028z"/>
	</g>
</g>
</svg>
